<svg id="Layer_1" data-name="Layer 1" xmlns="http://www.w3.org/2000/svg" viewBox="0 0 688.27 329.71"><defs><style>.cls-1{fill:#c1272d;}.cls-2{fill:none;}</style></defs><title>C7F-dark</title><polygon class="cls-1" points="266.28 15.72 430.84 12.31 351.51 156.52 266.28 15.72"/><path d="M570.93,365,497.44,498.58,418.49,368.15,570.93,365m12-7.25L406.23,361.4l91.5,151.18L582.9,357.74Z" transform="translate(-146.08 -349.05)"/><polygon class="cls-2" points="418.66 77.37 417.99 78.53 418.68 77.37 418.66 77.37"/><path d="M318.94,349.05q-42.43,0-74.72,17.25a166,166,0,0,0-54.15,45.75q-21.88,28.53-32.94,65.66a268.18,268.18,0,0,0-11,76.92q0,57.48,31.16,90.2t89.09,32.71q8.39,0,18.79-.88t21-2.66q10.61-1.77,20.78-4.42a119.72,119.72,0,0,0,19-6.63q-1.34-21.66-9.73-37.58a142.07,142.07,0,0,1-59.68,12.38q-39.8,0-60.79-22.1t-21-65A247.14,247.14,0,0,1,202,490.53a164.16,164.16,0,0,1,22.55-51.95,115.94,115.94,0,0,1,39.13-36.47q23.86-13.69,56.59-13.71a159.73,159.73,0,0,1,27.85,2.21,141.81,141.81,0,0,1,25.2,7.08,112.77,112.77,0,0,0,8.62-18.57A169.94,169.94,0,0,0,387,360.55,146.93,146.93,0,0,0,359,352.37Q342.38,349.06,318.94,349.05Z" transform="translate(-146.08 -349.05)"/><polygon points="441.19 38.02 440.8 38.02 419.7 75.54 441.19 38.02"/><path d="M590,357.7l-20.71,38-1,1.84-.66,1.17h0L420.7,660.13a65.35,65.35,0,0,0,17,11.37,129.34,129.34,0,0,0,22.7,7.27L637.36,360.25l-1.84-3.5Z" transform="translate(-146.08 -349.05)"/><polygon points="419.7 75.54 418.66 77.37 418.68 77.37 419.7 75.54"/><path d="M673.85,354.36l-55.7,317.88a77.61,77.61,0,0,0,10.61,1.1q5.75.23,11.94.22a201.49,201.49,0,0,0,23-1.32l25.2-145h96.38a148.46,148.46,0,0,0,7.07-39.79H696l16.36-93.28H827.27a72.4,72.4,0,0,0,4.86-19.23q.89-9.06,2.21-20.56Z" transform="translate(-146.08 -349.05)"/></svg>