<svg id="Layer_1" data-name="Layer 1" xmlns="http://www.w3.org/2000/svg" viewBox="0 0 688.27 329.71"><defs><style>.cls-1{fill:#c1272d;}.cls-2{fill:#fff;}.cls-3{fill:none;}</style></defs><title>C7F-light</title><polygon class="cls-1" points="266.28 15.72 430.84 12.31 351.51 156.52 266.28 15.72"/><path class="cls-2" d="M622.69,351.08,549.21,484.67l-79-130.43,152.43-3.16m12-7.25L458,347.49,549.5,498.66l85.17-154.83Z" transform="translate(-197.84 -335.14)"/><polygon class="cls-3" points="418.66 77.37 417.99 78.53 418.68 77.37 418.66 77.37"/><path class="cls-2" d="M370.71,335.14q-42.45,0-74.72,17.25a165.9,165.9,0,0,0-54.16,45.75q-21.89,28.51-32.94,65.66a268.18,268.18,0,0,0-11,76.92q0,57.48,31.17,90.19t89.08,32.72q8.4,0,18.79-.88t21-2.66q10.62-1.77,20.78-4.42a120.72,120.72,0,0,0,19-6.63q-1.32-21.66-9.72-37.58a142.16,142.16,0,0,1-59.69,12.38q-39.78,0-60.79-22.1t-21-65a246.66,246.66,0,0,1,7.3-60.13,164,164,0,0,1,22.54-51.95,116,116,0,0,1,39.13-36.47q23.88-13.71,56.59-13.71a159.57,159.57,0,0,1,27.85,2.21,141.81,141.81,0,0,1,25.2,7.08,112.9,112.9,0,0,0,8.63-18.57,170,170,0,0,0,5.08-18.57,146.82,146.82,0,0,0-28.07-8.18Q394.13,335.15,370.71,335.14Z" transform="translate(-197.84 -335.14)"/><polygon points="441.19 38.02 440.8 38.02 419.7 75.54 441.19 38.02"/><path class="cls-2" d="M641.73,343.79l-20.72,38-1,1.84-.66,1.17h0L472.46,646.22a65.52,65.52,0,0,0,17,11.37,129.47,129.47,0,0,0,22.71,7.27L689.12,346.34l-1.84-3.5Z" transform="translate(-197.84 -335.14)"/><polygon points="419.7 75.54 418.66 77.37 418.68 77.37 419.7 75.54"/><path class="cls-2" d="M725.62,340.45,669.91,658.33a77.61,77.61,0,0,0,10.61,1.1q5.75.23,11.94.22a201.49,201.49,0,0,0,23-1.32l25.2-145H837a148.07,148.07,0,0,0,7.07-39.79H747.72l16.36-93.28H879A72.4,72.4,0,0,0,883.89,361q.89-9.06,2.22-20.56Z" transform="translate(-197.84 -335.14)"/></svg>